HIERARCHY
ROOT Hips
{
	OFFSET 0.000000 0.000000 0.000000
	CHANNELS 6 Xposition Yposition Zposition Zrotation Yrotation Xrotation 
	JOINT LowerBack
	{
		OFFSET 0.000000 0.000000 0.000000
		CHANNELS 3 Zrotation Yrotation Xrotation
		JOINT Spine
		{
			OFFSET 0.028270 2.035590 -0.193380
			CHANNELS 3 Zrotation Yrotation Xrotation
			JOINT Spine1
			{
				OFFSET 0.056720 2.048850 -0.042750
				CHANNELS 3 Zrotation Yrotation Xrotation
				JOINT Neck
				{
					OFFSET 0.000000 0.000000 0.000000
					CHANNELS 3 Zrotation Yrotation Xrotation
					JOINT Neck1
					{
						OFFSET -0.054170 1.746240 0.172020
						CHANNELS 3 Zrotation Yrotation Xrotation
						JOINT Head
						{
							OFFSET 0.104070 1.761360 -0.123970
							CHANNELS 3 Zrotation Yrotation Xrotation
							End Site
							{
								OFFSET 0.000000 0.000000 0.000000
							}
						}
					}
				}
				JOINT LeftShoulder
				{
					OFFSET 0.000000 0.000000 0.000000
					CHANNELS 3 Zrotation Yrotation Xrotation
					JOINT LeftArm
					{
						OFFSET 3.362410 1.200890 -0.311210
						CHANNELS 3 Zrotation Yrotation Xrotation
						JOINT LeftForeArm
						{
							OFFSET 4.983000 -0.000000 -0.000000
							CHANNELS 3 Zrotation Yrotation Xrotation
							JOINT LeftHand
							{
								OFFSET 3.483560 -0.000000 -0.000000
								CHANNELS 3 Zrotation Yrotation Xrotation
								JOINT LeftFingerBase
								{
									OFFSET 0.000000 0.000000 0.000000
									CHANNELS 3 Zrotation Yrotation Xrotation
									JOINT LeftHandIndex1
									{
										OFFSET 0.715260 -0.000000 -0.000000
										CHANNELS 3 Zrotation Yrotation Xrotation
										End Site
										{
											OFFSET 0.000000 0.000000 0.000000
										}
									}
								}
								JOINT LThumb
								{
									OFFSET 0.000000 0.000000 0.000000
									CHANNELS 3 Zrotation Yrotation Xrotation
									End Site
									{
										OFFSET 0.000000 0.000000 0.000000
									}
								}
							}
						}
					}
				}
				JOINT RightShoulder
				{
					OFFSET 0.000000 0.000000 0.000000
					CHANNELS 3 Zrotation Yrotation Xrotation
					JOINT RightArm
					{
						OFFSET -3.136600 1.374050 -0.404650
						CHANNELS 3 Zrotation Yrotation Xrotation
						JOINT RightForeArm
						{
							OFFSET -5.241900 -0.000000 -0.000000
							CHANNELS 3 Zrotation Yrotation Xrotation
							JOINT RightHand
							{
								OFFSET -3.444170 -0.000000 -0.000000
								CHANNELS 3 Zrotation Yrotation Xrotation
								JOINT RightFingerBase
								{
									OFFSET 0.000000 0.000000 0.000000
									CHANNELS 3 Zrotation Yrotation Xrotation
									JOINT RightHandIndex1
									{
										OFFSET -0.622530 -0.000000 -0.000000
										CHANNELS 3 Zrotation Yrotation Xrotation
										End Site
										{
											OFFSET 0.000000 0.000000 0.000000
										}
									}
								}
								JOINT RThumb
								{
									OFFSET 0.000000 0.000000 0.000000
									CHANNELS 3 Zrotation Yrotation Xrotation
									End Site
									{
										OFFSET 0.000000 0.000000 0.000000
									}
								}
							}
						}
					}
				}
			}
		}
	}
}
}
MOTION
Frames: 17
Frame Time: 0.008333
0.069209 16.326824 0.516325 33.133076 77.452782 55.681400 -8.357474 0.782550 7.317220 -2.915114 1.112221 -2.050416 -7.326944 1.015891 -0.941255 9.235460 2.875111 1.896413 -5.175656 -0.448497 2.092553 0.000000 0.000000 0.000000 -6.959214 -0.347072 3.106799 -59.154408 12.489737 21.333059 -3.848759 -15.097934 -0.008321 -2.394744 4.360357 -0.090051 -0.068972 -0.066636 -0.000000 0.000000 0.000000 0.000000 0.000000 0.000000 0.000000 22.242500 4.524421 -1.003929 82.937699 21.183243 41.433973 1.020799 61.643279 0.007711 2.772021 12.701636 0.325836 -0.057403 -0.409397 -0.000000 0.000000 0.000000 0.000000 0.000000 0.000000 0.000000 
0.214552 16.299756 0.555847 33.573738 77.070064 55.714220 -8.566165 0.909238 7.889352 -2.966385 1.237736 -1.957882 -7.335488 1.142153 -1.028164 8.991414 3.357325 2.404835 -5.266120 -0.455398 2.199406 0.000000 0.000000 0.000000 -7.452160 -0.984899 3.115969 -58.744975 11.305392 21.594663 -3.883102 -13.814725 -0.007667 -2.141097 4.326743 -0.079533 -0.068896 -0.059162 0.000000 0.000000 0.000000 0.000000 0.000000 0.000000 0.000000 22.336252 4.764662 -1.101860 82.870735 21.094802 39.711657 1.031013 60.199252 0.004197 2.314947 13.170129 0.282618 -0.055265 -0.401848 -0.000000 0.000000 0.000000 0.000000 0.000000 0.000000 0.000000 
0.360324 16.285032 0.593507 33.716307 76.663903 55.489837 -8.705996 1.051568 8.388191 -3.000910 1.378609 -1.866967 -7.323576 1.284344 -1.073193 8.703365 3.840444 2.937675 -5.349006 -0.461641 2.312321 0.000000 0.000000 0.000000 -7.944501 -1.551964 3.098298 -58.485928 9.809140 21.445555 -3.907328 -12.205923 -0.006688 -1.644410 4.306302 -0.060108 -0.067470 -0.049128 0.000000 0.000000 0.000000 0.000000 0.000000 0.000000 0.000000 22.332309 4.970837 -1.220945 82.835989 20.999702 37.817549 1.044638 58.437038 0.000509 1.770616 13.597969 0.224098 -0.051736 -0.390436 -0.000000 0.000000 0.000000 0.000000 0.000000 0.000000 0.000000 
0.507491 16.281956 0.629375 33.598840 76.248031 55.055366 -8.775121 1.200032 8.798445 -3.018707 1.526710 -1.775860 -7.292706 1.434844 -1.060352 8.386588 4.307329 3.464140 -5.422467 -0.466850 2.423437 0.000000 0.000000 0.000000 -8.404934 -1.951829 3.048197 -58.387797 7.914680 20.933391 -3.910976 -10.270032 -0.005440 -0.845089 4.278207 -0.029477 -0.063698 -0.036361 0.000000 0.000000 0.000000 0.000000 0.000000 0.000000 0.000000 22.237633 5.133581 -1.362064 82.834973 20.910191 35.758096 1.060941 56.388860 -0.003081 1.156682 13.948148 0.151674 -0.047025 -0.375277 -0.000000 0.000000 0.000000 0.000000 0.000000 0.000000 0.000000 
0.656749 16.289663 0.663839 33.274922 75.835408 54.470092 -8.772845 1.345824 9.109230 -3.020681 1.674135 -1.686864 -7.249118 1.585695 -0.991616 8.060837 4.749986 3.969794 -5.485019 -0.470903 2.529745 0.000000 0.000000 0.000000 -8.825463 -2.175588 2.964975 -58.436722 5.664719 20.064257 -3.883801 -8.103914 -0.004125 0.310670 4.217730 0.013557 -0.056485 -0.021484 0.000000 0.000000 0.000000 0.000000 0.000000 0.000000 0.000000 22.069411 5.251703 -1.517953 82.860071 20.824312 33.527677 1.079372 54.100444 -0.006318 0.493305 14.188250 0.068647 -0.041428 -0.356900 -0.000000 0.000000 0.000000 0.000000 0.000000 0.000000 0.000000 
0.808461 16.307047 0.697433 32.807180 75.439629 53.800322 -8.701833 1.479596 9.317891 -3.008479 1.811890 -1.600517 -7.200038 1.727874 -0.867383 7.746884 5.160025 4.436147 -5.535741 -0.473660 2.626963 0.000000 0.000000 0.000000 -9.202800 -2.198399 2.849384 -58.602236 3.093550 18.956596 -3.816328 -5.843912 -0.003066 1.846781 4.094452 0.067688 -0.045130 -0.005602 0.000000 0.000000 0.000000 0.000000 0.000000 0.000000 0.000000 21.851132 5.324572 -1.682702 82.898753 20.748223 31.128641 1.099954 51.628963 -0.009018 -0.202043 14.295745 -0.021180 -0.035137 -0.336042 -0.000000 0.000000 0.000000 0.000000 0.000000 0.000000 0.000000 
0.962575 16.333029 0.730816 32.266090 75.072712 53.116063 -8.567528 1.593043 9.425907 -2.983997 1.931324 -1.522094 -7.153189 1.852153 -0.707557 7.466479 5.547213 4.866513 -5.573165 -0.475205 2.717123 0.000000 0.000000 0.000000 -9.541109 -2.091478 2.711335 -58.853483 0.369946 17.695529 -3.706363 -3.711162 -0.002603 3.750575 3.882191 0.127812 -0.029613 0.009525 0.000000 0.000000 0.000000 0.000000 0.000000 0.000000 0.000000 21.606981 5.368909 -1.843176 82.929211 20.662471 28.542626 1.122162 49.047244 -0.011082 -0.909901 14.258011 -0.112508 -0.028462 -0.313734 -0.000000 0.000000 0.000000 0.000000 0.000000 0.000000 0.000000 
1.118720 16.366427 0.764679 31.717450 74.746526 52.484910 -8.381819 1.677113 9.445872 -2.949944 2.022770 -1.446112 -7.112939 1.949285 -0.499175 7.235735 5.878760 5.224516 -5.598842 -0.475348 2.790490 0.000000 0.000000 0.000000 -9.828879 -1.773579 2.550643 -59.181370 -2.554371 16.527288 -3.559157 -1.808292 -0.002995 5.928656 3.550443 0.183124 -0.011335 0.022708 0.000000 0.000000 0.000000 0.000000 0.000000 0.000000 0.000000 21.369090 5.358378 -1.999972 82.931721 20.611971 25.838719 1.147712 46.414457 -0.012480 -1.641959 14.089818 -0.204334 -0.020987 -0.290809 0.000000 0.000000 0.000000 0.000000 0.000000 0.000000 0.000000 
1.276367 16.406274 0.799835 31.230001 74.468888 51.969801 -8.155304 1.726746 9.384157 -2.907689 2.079916 -1.386359 -7.082026 2.011568 -0.295744 7.072488 6.206923 5.556360 -5.610059 -0.474533 2.861252 0.000000 0.000000 0.000000 -10.061780 -1.475622 2.393141 -59.575488 -5.300936 15.455858 -3.390889 -0.447831 -0.004159 8.281054 3.121829 0.223520 0.008042 0.032260 0.000000 0.000000 0.000000 0.000000 0.000000 0.000000 0.000000 21.150023 5.349882 -2.129622 82.870077 20.516500 22.953762 1.173375 43.836755 -0.013314 -2.367267 13.794229 -0.290257 -0.013471 -0.268506 0.000000 0.000000 0.000000 0.000000 0.000000 0.000000 0.000000 
1.434207 16.451816 0.836383 30.803294 74.244160 51.569380 -7.895914 1.727406 9.277721 -2.859343 2.087190 -1.336876 -7.065160 2.023348 -0.099985 6.969431 6.471425 5.812654 -5.613956 -0.472836 2.915857 0.000000 0.000000 0.000000 -10.211859 -1.152640 2.247888 -59.903662 -7.314357 14.381229 -3.224279 -1.067496 -0.005493 10.655308 3.126733 0.287506 0.025559 0.037362 0.000000 0.000000 0.000000 0.000000 0.000000 0.000000 0.000000 20.980473 5.305889 -2.223216 82.728524 20.451824 20.052885 1.209193 41.342491 -0.013547 -3.131065 13.426007 -0.374870 -0.004458 -0.247669 0.000000 0.000000 0.000000 0.000000 0.000000 0.000000 0.000000 
1.590665 16.502739 0.874878 30.383791 74.069363 51.210016 -7.612401 1.709803 9.131284 -2.802858 2.074896 -1.301019 -7.048561 2.015013 0.074914 6.950922 6.730003 6.055868 -5.602098 -0.470399 2.971925 0.000000 0.000000 0.000000 -10.264748 -0.955011 2.112994 -60.459995 -9.493786 13.305847 -3.070096 -1.167647 -0.007004 12.887555 2.497994 0.276880 0.039503 0.038985 0.000000 0.000000 0.000000 0.000000 0.000000 0.000000 0.000000 20.848784 5.255612 -2.281548 82.459128 20.354201 17.093073 1.237283 39.026568 -0.013641 -3.905828 13.008788 -0.453784 0.004114 -0.228852 0.000000 0.000000 0.000000 0.000000 0.000000 0.000000 0.000000 
1.743080 16.559537 0.914655 29.796334 73.938257 50.688563 -7.285710 1.686265 8.998705 -2.734855 2.054811 -1.270252 -7.036453 1.998172 0.222693 7.010427 6.960833 6.277272 -5.576699 -0.467364 3.026677 0.000000 0.000000 0.000000 -10.222969 -0.911963 1.994308 -61.206729 -11.824538 12.017018 -2.936259 -0.762006 -0.008762 14.815276 1.212077 0.152153 0.048284 0.037905 0.000000 0.000000 0.000000 0.000000 0.000000 0.000000 0.000000 20.765468 5.191219 -2.297329 82.036086 20.272248 14.208130 1.259327 36.901067 -0.013707 -4.710050 12.596785 -0.530296 0.012531 -0.212641 0.000000 0.000000 0.000000 0.000000 0.000000 0.000000 0.000000 
1.893430 16.619548 0.957243 29.333895 73.845502 50.325715 -6.975556 1.637889 8.838777 -2.667580 2.008223 -1.254907 -7.027195 1.953984 0.335268 7.148017 7.154836 6.481823 -5.538692 -0.463955 3.082176 0.000000 0.000000 0.000000 -10.055219 -1.075232 1.896707 -62.088615 -14.138205 10.577534 -2.830393 -0.052761 -0.010566 16.299602 -0.603156 -0.091269 0.050562 0.035264 -0.000000 0.000000 0.000000 0.000000 0.000000 0.000000 0.000000 20.735780 5.099719 -2.272167 81.479541 20.155011 11.467866 1.273844 35.000984 -0.013811 -5.523183 12.225413 -0.603806 0.020529 -0.199215 0.000000 0.000000 0.000000 0.000000 0.000000 0.000000 0.000000 
2.039857 16.683154 1.001675 28.831435 73.777519 49.936037 -6.661724 1.559238 8.708750 -2.596561 1.929780 -1.252228 -7.020821 1.876124 0.381837 7.329877 7.317300 6.651983 -5.495640 -0.460473 3.132728 0.000000 0.000000 0.000000 -9.760042 -1.450756 1.830905 -62.915567 -15.536654 9.041107 -2.766382 -1.126844 -0.011345 17.205559 -2.015765 -0.309182 0.044967 0.032493 -0.000000 0.000000 0.000000 0.000000 0.000000 0.000000 0.000000 20.750194 5.017570 -2.193447 80.793342 20.012884 8.953933 1.292496 33.322789 -0.013854 -6.320478 11.922371 -0.674012 0.028565 -0.188678 -0.000000 0.000000 0.000000 0.000000 0.000000 0.000000 0.000000 
2.182341 16.749764 1.047653 28.270922 73.725878 49.488050 -6.340832 1.461859 8.611573 -2.520880 1.831266 -1.256486 -7.016232 1.777019 0.382062 7.548540 7.456923 6.794888 -5.445343 -0.456800 3.179573 0.000000 0.000000 0.000000 -9.387108 -1.987304 1.787807 -63.740380 -16.599194 7.991778 -2.739580 -2.754536 -0.011751 17.500805 -3.222451 -0.500375 0.032547 0.032566 -0.000000 0.000000 0.000000 0.000000 0.000000 0.000000 0.000000 20.792060 4.943689 -2.075615 79.988641 19.845021 6.697623 1.311545 31.850441 -0.013917 -7.061935 11.708921 -0.739817 0.035826 -0.180657 -0.000000 0.000000 0.000000 0.000000 0.000000 0.000000 0.000000 
2.321259 16.818592 1.094896 27.637280 73.679103 48.958942 -6.009494 1.347074 8.551530 -2.440370 1.714239 -1.264244 -7.014829 1.658501 0.345797 7.785823 7.578247 6.906399 -5.388986 -0.452922 3.220781 0.000000 0.000000 0.000000 -8.980277 -2.624516 1.764659 -64.493256 -17.397868 7.668947 -2.748173 -4.894563 -0.011974 17.246974 -4.054390 -0.620245 0.014811 0.036652 0.000000 0.000000 0.000000 0.000000 0.000000 0.000000 0.000000 20.845281 4.886533 -1.927388 79.088619 19.653351 4.714235 1.334406 30.556077 -0.013941 -7.702729 11.593665 -0.799221 0.042041 -0.174738 -0.000000 0.000000 0.000000 0.000000 0.000000 0.000000 0.000000 
2.457218 16.888744 1.143078 26.924620 73.626585 48.336550 -5.664157 1.216900 8.526518 -2.355090 1.580897 -1.272063 -7.018108 1.523162 0.287426 8.025151 7.679597 6.982059 -5.327872 -0.448830 3.254370 0.000000 0.000000 0.000000 -8.578952 -3.296889 1.758586 -65.107708 -18.046316 8.063685 -2.787074 -7.413138 -0.012184 16.546094 -4.496655 -0.660890 -0.006315 0.044721 0.000000 0.000000 0.000000 0.000000 0.000000 0.000000 0.000000 20.895524 4.847026 -1.758176 78.117596 19.447162 3.005291 1.364791 29.403799 -0.013830 -8.201618 11.572685 -0.849522 0.047065 -0.170432 -0.000000 0.000000 0.000000 0.000000 0.000000 0.000000 0.000000 
